<?xml version="1.0" encoding="UTF-8"?>
<!DOCTYPE svg PUBLIC "-//W3C//DTD SVG 1.1//EN" "http://www.w3.org/Graphics/SVG/1.1/DTD/svg11.dtd">
<svg xmlns="http://www.w3.org/2000/svg" version="1.1" width="1024px" height="1024px" style="shape-rendering:geometricPrecision; text-rendering:geometricPrecision; image-rendering:optimizeQuality; fill-rule:evenodd; clip-rule:evenodd" xmlns:xlink="http://www.w3.org/1999/xlink">
<g><path style="opacity:1" fill="#fefefe" d="M -0.5,-0.5 C 340.833,-0.5 682.167,-0.5 1023.5,-0.5C 1023.5,340.833 1023.5,682.167 1023.5,1023.5C 682.167,1023.5 340.833,1023.5 -0.5,1023.5C -0.5,682.167 -0.5,340.833 -0.5,-0.5 Z"/></g>
<g><path style="opacity:1" fill="#64fe41" d="M 511.5,94.5 C 563.392,142.22 611.226,193.553 655,248.5C 681.146,283.442 702.146,321.442 718,362.5C 745.021,433.707 739.355,502.04 701,567.5C 674.918,605.917 641.085,635.417 599.5,656C 515.659,688.58 438.992,676.58 369.5,620C 309.182,565.142 283.682,496.975 293,415.5C 301.284,370.305 317.617,328.305 342,289.5C 360.12,261.379 379.786,234.379 401,208.5C 431.65,175.682 462.484,143.016 493.5,110.5C 499.248,104.744 505.248,99.411 511.5,94.5 Z"/></g>
<g><path style="opacity:1" fill="#fefffe" d="M 511.5,123.5 C 545.527,157.027 578.694,191.36 611,226.5C 642.442,262.979 668.775,302.979 690,346.5C 699.61,367.663 706.61,389.663 711,412.5C 722.043,497.76 693.543,566.26 625.5,618C 553.29,665.208 480.29,666.541 406.5,622C 344.928,579.709 313.594,520.876 312.5,445.5C 312.472,421.528 316.305,398.194 324,375.5C 338.27,334.952 358.27,297.619 384,263.5C 398.864,242.963 414.864,223.297 432,204.5C 458.34,177.327 484.84,150.327 511.5,123.5 Z"/></g>
<g><path style="opacity:1" fill="#76d8ff" d="M 511.5,137.5 C 545.227,170.392 577.727,204.392 609,239.5C 632.072,267.585 652.406,297.585 670,329.5C 690.51,366.21 702.01,405.543 704.5,447.5C 701.581,521.486 669.081,578.153 607,617.5C 606.333,602.167 606.333,586.833 607,571.5C 612.667,565.833 618.333,560.167 624,554.5C 638.222,559.655 648.222,555.321 654,541.5C 655.5,522.333 646.667,513.5 627.5,515C 613.273,521.66 608.773,532.493 614,547.5C 607.279,554.221 600.613,560.887 594,567.5C 594.275,586.508 594.108,605.508 593.5,624.5C 581.309,630.063 568.809,634.729 556,638.5C 555.333,604.833 555.333,571.167 556,537.5C 570.863,522.971 585.363,508.138 599.5,493C 615.845,492.338 632.178,492.505 648.5,493.5C 653.114,505.313 661.781,510.146 674.5,508C 690.465,500.264 693.799,488.764 684.5,473.5C 677.407,466.481 669.074,464.648 659.5,468C 654.977,471.023 651.31,474.856 648.5,479.5C 630.839,480.229 613.173,480.396 595.5,480C 582.387,493.113 569.221,506.279 556,519.5C 555.822,501.831 556.156,484.165 557,466.5C 589.03,434.137 620.697,401.471 652,368.5C 653.167,361.667 650.333,358.833 643.5,360C 614.667,389.5 585.833,419 557,448.5C 556.333,443.167 556.333,437.833 557,432.5C 583.055,405.78 609.055,379.113 635,352.5C 636.091,345.914 636.925,339.247 637.5,332.5C 651.61,323.929 654.276,312.595 645.5,298.5C 638.407,291.481 630.074,289.648 620.5,293C 609.295,299.612 605.795,309.112 610,321.5C 612.934,327.201 617.434,330.868 623.5,332.5C 623.666,337.179 623.499,341.845 623,346.5C 596.303,373.53 569.969,400.863 544,428.5C 543.521,499.501 543.021,570.501 542.5,641.5C 538.147,642.059 533.814,642.725 529.5,643.5C 529.333,569.166 529.5,494.833 530,420.5C 555.667,395.5 581.333,370.5 607,345.5C 608.232,340.289 606.232,337.289 601,336.5C 597.599,338.219 594.432,340.386 591.5,343C 566.484,367.736 541.651,392.57 517,417.5C 516.5,493.166 516.333,568.833 516.5,644.5C 514.167,644.5 511.833,644.5 509.5,644.5C 509.667,568.833 509.5,493.166 509,417.5C 484.349,392.57 459.516,367.736 434.5,343C 431.568,340.386 428.401,338.219 425,336.5C 419.768,337.289 417.768,340.289 419,345.5C 444.667,370.5 470.333,395.5 496,420.5C 496.5,494.833 496.667,569.166 496.5,643.5C 492.186,642.725 487.853,642.059 483.5,641.5C 482.979,570.501 482.479,499.501 482,428.5C 456.031,400.863 429.697,373.53 403,346.5C 400.616,338.246 403.282,332.58 411,329.5C 420.906,314.055 417.739,302.221 401.5,294C 385.702,291.972 376.702,298.806 374.5,314.5C 374.98,324.636 379.98,331.303 389.5,334.5C 389.09,340.621 389.59,346.621 391,352.5C 416.945,379.113 442.945,405.78 469,432.5C 469.667,437.833 469.667,443.167 469,448.5C 440.167,419 411.333,389.5 382.5,360C 377.289,358.768 374.289,360.768 373.5,366C 374.881,369.063 376.714,371.896 379,374.5C 409,405.167 439,435.833 469,466.5C 469.844,484.165 470.178,501.831 470,519.5C 456.779,506.279 443.613,493.113 430.5,480C 413.826,480.351 397.159,480.184 380.5,479.5C 372.881,466.127 362.214,462.961 348.5,470C 337.713,479.944 336.713,490.778 345.5,502.5C 355.632,510.477 365.799,510.477 376,502.5C 378.06,499.714 379.56,496.714 380.5,493.5C 395.817,492.453 411.151,492.287 426.5,493C 440.637,508.138 455.137,522.971 470,537.5C 470.833,571.172 470.667,604.838 469.5,638.5C 456.299,635.157 443.799,630.157 432,623.5C 431.911,604.832 431.911,586.165 432,567.5C 425.054,560.554 418.054,553.554 411,546.5C 416.002,531.819 411.502,521.319 397.5,515C 391.042,513.699 385.042,514.699 379.5,518C 368.713,527.944 367.713,538.778 376.5,550.5C 383.941,556.821 392.274,558.154 401.5,554.5C 407.485,559.985 413.319,565.652 419,571.5C 419.667,586.833 419.667,602.167 419,617.5C 351.682,574.208 319.682,512.208 323,431.5C 325.985,402.212 333.652,374.212 346,347.5C 370.971,296.867 402.638,250.867 441,209.5C 464.34,185.327 487.84,161.327 511.5,137.5 Z"/></g>
<g><path style="opacity:1" fill="#fefffe" d="M 506.5,169.5 C 527.645,168.478 537.479,178.478 536,199.5C 533.574,208.76 527.741,214.427 518.5,216.5C 519.467,220.24 520.134,224.074 520.5,228C 519.064,276.506 519.231,325.006 521,373.5C 540.667,356.5 560.333,339.5 580,322.5C 580.5,311.172 580.667,299.838 580.5,288.5C 566.916,283.305 562.416,273.638 567,259.5C 573.612,248.295 583.112,244.795 595.5,249C 609.11,258.605 611.11,270.272 601.5,284C 599.167,285.5 596.833,287 594.5,288.5C 593.667,301.487 593.167,314.487 593,327.5C 567.593,349.785 542.093,371.951 516.5,394C 512.191,395.198 508.524,394.198 505.5,391C 481.037,370.206 456.87,349.039 433,327.5C 432.5,314.838 432.333,302.171 432.5,289.5C 418.916,284.305 414.416,274.638 419,260.5C 422.298,255.199 426.798,251.365 432.5,249C 451.667,247.5 460.5,256.333 459,275.5C 456.905,282.029 452.738,286.696 446.5,289.5C 445.334,300.485 445.168,311.485 446,322.5C 466.333,340.167 486.667,357.833 507,375.5C 507.167,325.661 506.667,275.828 505.5,226C 505.167,222.833 504.833,219.667 504.5,216.5C 490.733,209.961 485.899,199.294 490,184.5C 493.19,176.843 498.69,171.843 506.5,169.5 Z"/></g>
<g><path style="opacity:1" fill="#76d8ff" d="M 510.5,181.5 C 522.553,182.946 526.386,189.279 522,200.5C 515.667,207.167 509.333,207.167 503,200.5C 498.938,191.511 501.438,185.178 510.5,181.5 Z"/></g>
<g><path style="opacity:1" fill="#76d8ff" d="M 584.5,259.5 C 594.114,260.732 596.947,265.732 593,274.5C 585.416,278.915 580.249,276.915 577.5,268.5C 578.188,264.083 580.521,261.083 584.5,259.5 Z"/></g>
<g><path style="opacity:1" fill="#76d8ff" d="M 436.5,260.5 C 446.114,261.732 448.947,266.732 445,275.5C 437.416,279.915 432.249,277.915 429.5,269.5C 430.188,265.083 432.521,262.083 436.5,260.5 Z"/></g>
<g><path style="opacity:1" fill="#76d8ff" d="M 627.5,303.5 C 637.114,304.732 639.947,309.732 636,318.5C 628.416,322.915 623.249,320.915 620.5,312.5C 621.188,308.083 623.521,305.083 627.5,303.5 Z"/></g>
<g><path style="opacity:1" fill="#76d8ff" d="M 393.5,305.5 C 403.114,306.732 405.947,311.732 402,320.5C 394.416,324.915 389.249,322.915 386.5,314.5C 387.188,310.083 389.521,307.083 393.5,305.5 Z"/></g>
<g><path style="opacity:1" fill="#76d8ff" d="M 358.5,478.5 C 368.114,479.732 370.947,484.732 367,493.5C 359.416,497.915 354.249,495.915 351.5,487.5C 352.188,483.083 354.521,480.083 358.5,478.5 Z"/></g>
<g><path style="opacity:1" fill="#76d8ff" d="M 666.5,478.5 C 676.114,479.732 678.947,484.732 675,493.5C 667.416,497.915 662.249,495.915 659.5,487.5C 660.188,483.083 662.521,480.083 666.5,478.5 Z"/></g>
<g><path style="opacity:1" fill="#76d8ff" d="M 389.5,526.5 C 399.114,527.732 401.947,532.732 398,541.5C 390.416,545.915 385.249,543.915 382.5,535.5C 383.188,531.083 385.521,528.083 389.5,526.5 Z"/></g>
<g><path style="opacity:1" fill="#76d8ff" d="M 631.5,526.5 C 641.114,527.732 643.947,532.732 640,541.5C 632.416,545.915 627.249,543.915 624.5,535.5C 625.188,531.083 627.521,528.083 631.5,526.5 Z"/></g>
<g><path style="opacity:1" fill="#81df5b" d="M 777.5,659.5 C 788.214,672.549 786.381,683.549 772,692.5C 761.814,679.28 763.647,668.28 777.5,659.5 Z"/></g>
<g><path style="opacity:1" fill="#7fdf59" d="M 795.5,666.5 C 802.255,666.387 808.922,667.053 815.5,668.5C 811.48,696.34 795.813,707.006 768.5,700.5C 768.833,698.5 769.167,696.5 769.5,694.5C 779.594,693.909 785.427,688.575 787,678.5C 787.456,675.428 787.456,672.428 787,669.5C 789.87,668.307 792.704,667.307 795.5,666.5 Z"/></g>
<g><path style="opacity:1" fill="#343434" d="M 307.5,716.5 C 326.709,713.208 343.043,718.375 356.5,732C 352.03,737.637 347.03,742.804 341.5,747.5C 332.375,736.286 321.042,733.452 307.5,739C 294.76,750.105 291.594,763.605 298,779.5C 308.251,793.126 320.751,795.626 335.5,787C 338.812,783.901 340.479,780.067 340.5,775.5C 333.167,775.5 325.833,775.5 318.5,775.5C 318.5,769.833 318.5,764.167 318.5,758.5C 333.833,758.5 349.167,758.5 364.5,758.5C 367.579,792.093 352.246,810.093 318.5,812.5C 292.984,811.153 276.818,798.153 270,773.5C 267.179,744.195 279.679,725.195 307.5,716.5 Z"/></g>
<g><path style="opacity:1" fill="#343434" d="M 484.5,716.5 C 511.812,713.388 531.312,724.054 543,748.5C 549.89,779.559 538.39,800.392 508.5,811C 484.074,815.864 464.574,808.364 450,788.5C 438.174,762.346 443.674,740.846 466.5,724C 472.225,720.584 478.225,718.084 484.5,716.5 Z"/></g>
<g><path style="opacity:1" fill="#343434" d="M 718.5,716.5 C 733.599,714.768 747.932,717.101 761.5,723.5C 759.47,730.061 756.47,736.228 752.5,742C 747.661,740.505 742.661,739.172 737.5,738C 721.992,735.304 710.159,740.471 702,753.5C 696.769,771.87 703.269,784.036 721.5,790C 732.142,791.761 742.142,790.261 751.5,785.5C 755.218,791.102 758.552,796.935 761.5,803C 761.18,804.653 760.18,805.653 758.5,806C 730.183,818.422 705.35,813.589 684,791.5C 668.64,766.962 672.14,745.462 694.5,727C 701.909,721.992 709.909,718.492 718.5,716.5 Z"/></g>
<g><path style="opacity:1" fill="#343434" d="M 214.5,717.5 C 221.508,717.334 228.508,717.5 235.5,718C 249.754,748.439 263.421,779.106 276.5,810C 267.84,810.5 259.173,810.666 250.5,810.5C 248.949,804.308 246.949,798.308 244.5,792.5C 231.829,792.333 219.162,792.5 206.5,793C 203.879,798.36 201.545,803.86 199.5,809.5C 191.193,810.498 182.86,810.831 174.5,810.5C 187.075,779.236 200.409,748.236 214.5,717.5 Z"/></g>
<g><path style="opacity:1" fill="#343434" d="M 367.5,717.5 C 383.224,717.063 398.891,717.563 414.5,719C 428.436,722.434 436.103,731.267 437.5,745.5C 436.753,753.924 433.42,761.091 427.5,767C 423.96,768.931 420.626,771.098 417.5,773.5C 428.571,785.414 439.571,797.581 450.5,810C 440.5,810.667 430.5,810.667 420.5,810C 410.891,798.632 401.391,787.132 392,775.5C 391.5,787.162 391.333,798.829 391.5,810.5C 383.5,810.5 375.5,810.5 367.5,810.5C 367.5,779.5 367.5,748.5 367.5,717.5 Z"/></g>
<g><path style="opacity:1" fill="#343434" d="M 542.5,717.5 C 565.836,717.333 589.169,717.5 612.5,718C 613.833,724.333 613.833,730.667 612.5,737C 604.841,737.5 597.174,737.666 589.5,737.5C 589.5,761.833 589.5,786.167 589.5,810.5C 581.5,810.5 573.5,810.5 565.5,810.5C 565.5,786.167 565.5,761.833 565.5,737.5C 558.159,737.666 550.826,737.5 543.5,737C 542.522,730.59 542.189,724.09 542.5,717.5 Z"/></g>
<g><path style="opacity:1" fill="#343434" d="M 615.5,717.5 C 634.5,717.5 653.5,717.5 672.5,717.5C 672.811,724.09 672.478,730.59 671.5,737C 660.505,737.5 649.505,737.667 638.5,737.5C 638.5,743.167 638.5,748.833 638.5,754.5C 649.167,754.5 659.833,754.5 670.5,754.5C 670.584,760.877 670.584,767.044 670.5,773C 659.839,773.5 649.172,773.667 638.5,773.5C 638.5,779.5 638.5,785.5 638.5,791.5C 649.833,791.5 661.167,791.5 672.5,791.5C 672.5,797.833 672.5,804.167 672.5,810.5C 653.167,810.5 633.833,810.5 614.5,810.5C 614.175,779.427 614.508,748.427 615.5,717.5 Z"/></g>
<g><path style="opacity:1" fill="#333333" d="M 819.5,810.5 C 819.5,798.167 819.5,785.833 819.5,773.5C 808.654,773.172 797.987,773.506 787.5,774.5C 787.5,786.5 787.5,798.5 787.5,810.5C 779.833,810.5 772.167,810.5 764.5,810.5C 764.5,779.5 764.5,748.5 764.5,717.5C 772.087,717.186 779.587,717.519 787,718.5C 787.5,730.495 787.667,742.495 787.5,754.5C 797.833,754.5 808.167,754.5 818.5,754.5C 818.5,742.167 818.5,729.833 818.5,717.5C 826.42,717.185 834.253,717.518 842,718.5C 842.5,749.165 842.667,779.832 842.5,810.5C 834.833,810.5 827.167,810.5 819.5,810.5 Z"/></g>
<g><path style="opacity:1" fill="#fbfbfb" d="M 391.5,734.5 C 397.333,734.875 403,736.042 408.5,738C 413.833,744 413.833,750 408.5,756C 403.047,758.118 397.38,758.952 391.5,758.5C 391.5,750.5 391.5,742.5 391.5,734.5 Z"/></g>
<g><path style="opacity:1" fill="#fcfcfc" d="M 487.5,737.5 C 502.766,734.711 513.266,740.378 519,754.5C 522.854,783.318 510.687,794.818 482.5,789C 473.371,783.492 469.038,775.326 469.5,764.5C 469.308,751.182 475.308,742.182 487.5,737.5 Z"/></g>
<g><path style="opacity:1" fill="#fafafa" d="M 234.5,770.5 C 231.742,771.818 228.576,772.485 225,772.5C 221.648,772.498 218.482,772.165 215.5,771.5C 218.563,763.817 221.729,756.15 225,748.5C 228.97,755.445 232.137,762.778 234.5,770.5 Z"/></g>
<g><path style="opacity:1" fill="#a4a4a4" d="M 234.5,770.5 C 235.404,771.209 235.737,772.209 235.5,773.5C 228.468,773.83 221.468,773.497 214.5,772.5C 214.624,771.893 214.957,771.56 215.5,771.5C 218.482,772.165 221.648,772.498 225,772.5C 228.576,772.485 231.742,771.818 234.5,770.5 Z"/></g>
<g><path style="opacity:1" fill="#787878" d="M 787.5,774.5 C 797.987,773.506 808.654,773.172 819.5,773.5C 819.5,785.833 819.5,798.167 819.5,810.5C 818.505,798.678 818.172,786.678 818.5,774.5C 808.167,774.5 797.833,774.5 787.5,774.5 Z"/></g>
</svg>
